<svg height="418pt" viewBox="0 -30 418.50539 418" width="418pt" xmlns="http://www.w3.org/2000/svg"><path d="m314.027344 176.410156c0 86.71875-70.296875 157.015625-157.015625 157.015625-86.714844 0-157.011719-70.296875-157.011719-157.015625 0-86.714844 70.296875-157.011718 157.011719-157.011718 86.71875 0 157.015625 70.296874 157.015625 157.011718zm0 0" fill="#efefd2"/><path d="m368.035156 200.609375c0 82.777344-67.105468 149.882813-149.886718 149.882813-82.777344 0-149.882813-67.105469-149.882813-149.882813 0-82.78125 67.105469-149.886719 149.882813-149.886719 82.78125 0 149.886718 67.105469 149.886718 149.886719zm0 0" fill="#fff"/><path d="m218.148438 357.316406c-86.410157 0-156.707032-70.296875-156.707032-156.707031s70.296875-156.710937 156.707032-156.710937c86.410156 0 156.710937 70.300781 156.710937 156.710937s-70.300781 156.707031-156.710937 156.707031zm0-299.765625c-78.882813 0-143.054688 64.175781-143.054688 143.058594s64.171875 143.054687 143.054688 143.054687c78.882812 0 143.058593-64.171874 143.058593-143.054687s-64.171875-143.058594-143.058593-143.058594zm0 0" fill="#4c241d"/><path d="m367.941406 196.890625c-1.976562-80.953125-68.09375-145.996094-149.488281-146.160156v146.160156zm0 0" fill="#b5a19c"/><path d="m368.035156 196.890625h43.644532c0-106.882813-86.644532-189.8125-193.527344-189.8125v43.644531c82.777344 0 149.882812 63.390625 149.882812 146.167969zm0 0" fill="#6b4f5b"/><g fill="#4c241d"><path d="m411.679688 203.71875h-43.648438c-3.769531 0-6.824219-3.058594-6.824219-6.828125 0-78.132813-62.835937-139.339844-143.058593-139.339844-3.769532 0-6.824219-3.058593-6.824219-6.828125v-43.644531c0-3.769531 3.054687-6.824219 6.824219-6.824219 112.351562 0 200.355468 86.371094 200.355468 196.640625 0 3.765625-3.054687 6.824219-6.824218 6.824219zm-36.820313-6.828125h.066406zm-.148437-6.824219h30.023437c-3.46875-97.109375-80.660156-172.714844-179.757813-176.046875v30.015625c82.269532 3.289063 146.292969 65.734375 149.734376 146.03125zm0 0"/><path d="m218.453125 87.664062c-3.769531 0-6.828125-3.054687-6.828125-6.824218v-27.308594c0-3.769531 3.058594-6.828125 6.828125-6.828125s6.828125 3.058594 6.828125 6.828125v27.308594c0 3.769531-3.058594 6.824218-6.828125 6.824218zm0 0"/><path d="m218.453125 353.90625c-3.769531 0-6.828125-3.058594-6.828125-6.828125v-27.308594c0-3.769531 3.058594-6.824219 6.828125-6.824219s6.828125 3.054688 6.828125 6.824219v27.308594c0 3.769531-3.058594 6.828125-6.828125 6.828125zm0 0"/><path d="m102.398438 203.71875h-34.132813c-3.769531 0-6.824219-3.058594-6.824219-6.828125s3.054688-6.824219 6.824219-6.824219h34.132813c3.773437 0 6.828124 3.054688 6.828124 6.824219s-3.054687 6.828125-6.828124 6.828125zm0 0"/><path d="m361.8125 203.71875h-27.304688c-3.769531 0-6.828124-3.058594-6.828124-6.828125s3.058593-6.824219 6.828124-6.824219h27.304688c3.769531 0 6.828125 3.054688 6.828125 6.824219s-3.058594 6.828125-6.828125 6.828125zm0 0"/><path d="m115.40625 314.960938c-1.710938 0-3.421875-.640626-4.746094-1.921876-2.710937-2.621093-2.78125-6.941406-.15625-9.648437l18.992188-19.621094c2.617187-2.714843 6.945312-2.785156 9.648437-.15625 2.710938 2.617188 2.78125 6.941407.160157 9.648438l-18.996094 19.621093c-1.335938 1.382813-3.117188 2.078126-4.902344 2.078126zm0 0"/><path d="m300.582031 123.667969c-1.707031 0-3.421875-.640625-4.746093-1.921875-2.710938-2.621094-2.777344-6.945313-.15625-9.652344l18.992187-19.617188c2.617187-2.714843 6.945313-2.78125 9.652344-.15625 2.707031 2.617188 2.777343 6.941407.15625 9.648438l-18.992188 19.621094c-1.339843 1.382812-3.121093 2.078125-4.90625 2.078125zm0 0"/><path d="m131.734375 131.242188c-1.710937 0-3.425781-.640626-4.75-1.921876l-24.523437-23.742187c-2.707032-2.621094-2.777344-6.945313-.15625-9.65625 2.613281-2.707031 6.941406-2.777344 9.65625-.152344l24.519531 23.742188c2.707031 2.621093 2.777343 6.945312.15625 9.652343-1.335938 1.378907-3.121094 2.078126-4.902344 2.078126zm0 0"/><path d="m318.121094 311.667969c-1.707032 0-3.421875-.640625-4.746094-1.921875l-19.617188-18.996094c-2.710937-2.617188-2.78125-6.941406-.160156-9.648438 2.613282-2.714843 6.945313-2.78125 9.652344-.15625l19.617188 18.992188c2.710937 2.621094 2.78125 6.945312.160156 9.648438-1.335938 1.386718-3.121094 2.082031-4.90625 2.082031zm0 0"/><path d="m191.148438 251.503906c-3.773438 0-6.828126-3.054687-6.828126-6.824218v-70.875l-10.601562 5.300781c-3.378906 1.699219-7.46875.316406-9.160156-3.054688-1.683594-3.375-.320313-7.472656 3.054687-9.160156l20.480469-10.238281c2.113281-1.054688 4.628906-.945313 6.644531.300781 2.007813 1.242187 3.234375 3.441406 3.234375 5.804687v81.921876c0 3.769531-3.054687 6.824218-6.824218 6.824218zm0 0"/><path d="m242.347656 251.503906c-13.175781 0-23.894531-10.023437-23.894531-22.34375 0-3.769531 3.058594-6.824218 6.828125-6.824218s6.824219 3.054687 6.824219 6.824218c0 4.796875 4.59375 8.691406 10.242187 8.691406 5.644532 0 10.238282-3.894531 10.238282-8.691406v-6.8125c0-4.457031-4.292969-8.078125-9.570313-8.078125h-17.734375c-3.769531 0-6.828125-3.058593-6.828125-6.828125v-31.03125c0-3.769531 3.058594-6.824218 6.828125-6.824218h34.132812c3.769532 0 6.824219 3.054687 6.824219 6.824218 0 3.769532-3.054687 6.828125-6.824219 6.828125h-27.308593v17.378907h10.910156c12.808594 0 23.222656 9.75 23.222656 21.730468v6.8125c0 12.320313-10.71875 22.34375-23.890625 22.34375zm0 0"/></g></svg>