<svg height="420pt" viewBox="0 -8 420.06699 420" width="420pt" xmlns="http://www.w3.org/2000/svg"><path d="m314.027344 205.054688c0 86.714843-70.296875 157.011718-157.015625 157.011718-86.714844 0-157.011719-70.296875-157.011719-157.011718 0-86.71875 70.296875-157.015626 157.011719-157.015626 86.71875 0 157.015625 70.296876 157.015625 157.015626zm0 0" fill="#efefd2"/><path d="m368.035156 201.945312c0 82.777344-67.105468 149.882813-149.886718 149.882813-82.777344 0-149.882813-67.105469-149.882813-149.882813 0-82.78125 67.105469-149.886718 149.882813-149.886718 82.78125 0 149.886718 67.105468 149.886718 149.886718zm0 0" fill="#fff"/><path d="m218.148438 358.652344c-86.410157 0-156.707032-70.296875-156.707032-156.707032 0-86.410156 70.296875-156.710937 156.707032-156.710937 86.410156 0 156.710937 70.300781 156.710937 156.710937 0 86.410157-70.300781 156.707032-156.710937 156.707032zm0-299.765625c-78.882813 0-143.054688 64.175781-143.054688 143.058593 0 78.882813 64.171875 143.054688 143.054688 143.054688 78.882812 0 143.058593-64.171875 143.058593-143.054688 0-78.882812-64.171875-143.058593-143.058593-143.058593zm0 0" fill="#4c241d"/><path d="m368.035156 201.945312c0-82.679687-66.941406-149.714843-149.582031-149.878906v299.753906c82.640625-.164062 149.582031-67.199218 149.582031-149.875zm0 0" fill="#b5a19c"/><path d="m413.242188 201.945312c0-107.644531-87.183594-194.917968-194.789063-195.082031v45.203125c82.636719.164063 149.578125 67.199219 149.578125 149.878906 0 82.675782-66.941406 149.710938-149.578125 149.875v45.207032c107.605469-.164063 194.789063-87.441406 194.789063-195.082032zm0 0" fill="#6b4f5b"/><g fill="#4c241d"><path d="m218.453125 403.855469c-1.8125 0-3.542969-.71875-4.824219-1.996094-1.28125-1.28125-2.003906-3.019531-2.003906-4.832031v-45.207032c0-3.761718 3.046875-6.816406 6.816406-6.824218 78.71875-.160156 142.765625-64.332032 142.765625-143.050782 0-78.722656-64.042969-142.894531-142.765625-143.050781-3.769531-.003906-6.816406-3.0625-6.816406-6.824219v-45.210937c0-1.8125.722656-3.550781 2.003906-4.828125 1.28125-1.28125 3.015625-1.9960938 4.824219-1.9960938h.011719c111.164062.1679688 201.601562 90.7460938 201.601562 201.9101558 0 111.160157-90.4375 201.734376-201.601562 201.910157-.003906 0-.007813 0-.011719 0zm6.828125-45.367188v31.578125c100.488281-3.765625 181.132812-86.769531 181.132812-188.121094 0-101.359374-80.644531-184.355468-181.132812-188.125v31.578126c83.085938 3.746093 149.578125 72.589843 149.578125 156.546874 0 83.949219-66.496094 152.792969-149.578125 156.542969zm0 0"/><path d="m218.453125 89c-3.769531 0-6.828125-3.054688-6.828125-6.828125v-27.304687c0-3.769532 3.058594-6.828126 6.828125-6.828126s6.828125 3.058594 6.828125 6.828126v27.304687c0 3.773437-3.058594 6.828125-6.828125 6.828125zm0 0"/><path d="m218.453125 355.242188c-3.769531 0-6.828125-3.058594-6.828125-6.828126v-27.308593c0-3.769531 3.058594-6.824219 6.828125-6.824219s6.828125 3.054688 6.828125 6.824219v27.308593c0 3.769532-3.058594 6.828126-6.828125 6.828126zm0 0"/><path d="m102.398438 205.054688h-34.132813c-3.769531 0-6.824219-3.058594-6.824219-6.828126 0-3.769531 3.054688-6.828124 6.824219-6.828124h34.132813c3.773437 0 6.828124 3.058593 6.828124 6.828124 0 3.769532-3.054687 6.828126-6.828124 6.828126zm0 0"/><path d="m361.8125 205.054688h-27.304688c-3.769531 0-6.828124-3.058594-6.828124-6.828126 0-3.769531 3.058593-6.828124 6.828124-6.828124h27.304688c3.769531 0 6.828125 3.058593 6.828125 6.828124 0 3.769532-3.058594 6.828126-6.828125 6.828126zm0 0"/><path d="m115.40625 316.296875c-1.710938 0-3.421875-.640625-4.746094-1.921875-2.710937-2.621094-2.78125-6.945312-.15625-9.648438l18.992188-19.621093c2.617187-2.714844 6.945312-2.785157 9.648437-.15625 2.710938 2.617187 2.78125 6.941406.160157 9.648437l-18.996094 19.621094c-1.335938 1.382812-3.117188 2.078125-4.902344 2.078125zm0 0"/><path d="m300.582031 125.003906c-1.707031 0-3.421875-.640625-4.746093-1.921875-2.710938-2.621093-2.777344-6.945312-.15625-9.652343l18.992187-19.617188c2.617187-2.714844 6.945313-2.78125 9.652344-.15625 2.707031 2.617188 2.777343 6.941406.15625 9.648438l-18.992188 19.617187c-1.339843 1.386719-3.121093 2.082031-4.90625 2.082031zm0 0"/><path d="m131.734375 132.578125c-1.710937 0-3.425781-.640625-4.75-1.925781l-24.523437-23.742188c-2.707032-2.621094-2.777344-6.941406-.15625-9.652344 2.613281-2.707031 6.941406-2.78125 9.65625-.152343l24.519531 23.742187c2.707031 2.617188 2.777343 6.941406.15625 9.652344-1.335938 1.378906-3.121094 2.078125-4.902344 2.078125zm0 0"/><path d="m318.121094 313.003906c-1.707032 0-3.421875-.640625-4.746094-1.921875l-19.617188-18.996093c-2.710937-2.617188-2.78125-6.941407-.160156-9.648438 2.613282-2.714844 6.945313-2.78125 9.652344-.15625l19.617188 18.992188c2.710937 2.621093 2.78125 6.941406.160156 9.648437-1.335938 1.386719-3.121094 2.082031-4.90625 2.082031zm0 0"/><path d="m245.761719 252.839844c-15.058594 0-27.308594-12.25-27.308594-27.304688v-27.308594c0-15.054687 12.25-27.304687 27.308594-27.304687 15.054687 0 27.304687 12.25 27.304687 27.304687v27.308594c0 15.054688-12.25 27.304688-27.304687 27.304688zm0-68.265625c-7.53125 0-13.65625 6.121093-13.65625 13.652343v27.308594c0 7.527344 6.125 13.652344 13.65625 13.652344 7.527343 0 13.652343-6.125 13.652343-13.652344v-27.308594c0-7.53125-6.125-13.652343-13.652343-13.652343zm0 0"/><path d="m184.320312 252.839844c-15.054687 0-27.308593-12.25-27.308593-27.304688 0-3.773437 3.058593-6.828125 6.828125-6.828125 3.769531 0 6.828125 3.054688 6.828125 6.828125 0 7.527344 6.121093 13.652344 13.652343 13.652344s13.652344-6.125 13.652344-13.652344c0-7.53125-6.121094-13.65625-13.652344-13.65625-3.769531 0-6.828124-3.054687-6.828124-6.824218 0-3.769532 3.058593-6.828126 6.828124-6.828126 7.53125 0 13.652344-6.125 13.652344-13.652343 0-7.53125-6.121094-13.652344-13.652344-13.652344s-13.652343 6.121094-13.652343 13.652344c0 3.769531-3.058594 6.824219-6.828125 6.824219-3.769532 0-6.828125-3.054688-6.828125-6.824219 0-15.058594 12.253906-27.308594 27.308593-27.308594 15.054688 0 27.304688 12.25 27.304688 27.308594 0 8.144531-3.585938 15.472656-9.261719 20.480469 5.675781 5.007812 9.261719 12.332031 9.261719 20.480468 0 15.054688-12.25 27.304688-27.304688 27.304688zm0 0"/></g></svg>