<svg height="403pt" viewBox="0 -2 403.82634 403" width="403pt" xmlns="http://www.w3.org/2000/svg"><path d="m314.027344 161.886719c0 86.714843-70.296875 157.011719-157.015625 157.011719-86.714844 0-157.011719-70.296876-157.011719-157.011719 0-86.714844 70.296875-157.015625 157.011719-157.015625 86.71875 0 157.015625 70.300781 157.015625 157.015625zm0 0" fill="#efefd2"/><path d="m204.800781 7.242188v46.800781c80.332031.164062 145.40625 65.320312 145.40625 145.695312 0 80.472657-65.238281 145.707031-145.710937 145.707031s-145.710938-65.234374-145.710938-145.707031c0-1.257812.15625-2.472656.1875-3.71875h-46.882812c-.023438 1.242188-.09375 2.472657-.09375 3.71875 0 106.3125 86.183594 192.5 192.5 192.5s192.503906-86.1875 192.503906-192.5c0-106.21875-86.023438-192.332031-192.199219-192.496093zm0 0" fill="#6b4f5b"/><path d="m204.496094 399.0625c-109.90625 0-199.324219-89.417969-199.324219-199.324219 0-.828125.027344-1.648437.050781-2.464843l.039063-1.382813c.070312-3.71875 3.109375-6.699219 6.828125-6.699219h46.882812c1.839844 0 3.601563.746094 4.882813 2.058594 1.289062 1.316406 1.988281 3.09375 1.941406 4.933594-.011719.664062-.054687 1.320312-.105469 1.972656-.035156.523438-.078125 1.046875-.078125 1.582031 0 76.578125 62.304688 138.882813 138.882813 138.882813s138.882812-62.304688 138.882812-138.882813c0-76.414062-62.171875-138.710937-138.59375-138.871093-3.765625-.007813-6.8125-3.0625-6.8125-6.828126v-46.800781c0-1.8125.722656-3.546875 2.003906-4.828125s3.015626-1.996094 4.824219-1.996094h.007813c109.742187.171876 199.019531 89.589844 199.019531 199.324219 0 109.90625-89.421875 199.324219-199.332031 199.324219zm-185.644532-196.214844c1.664063 100.949219 84.300782 182.5625 185.644532 182.5625 102.382812 0 185.675781-83.292968 185.675781-185.671875 0-99.933593-79.476563-181.773437-178.546875-185.535156v33.175781c80.785156 3.746094 145.40625 70.714844 145.40625 152.359375 0 84.109375-68.425781 152.535157-152.535156 152.535157-83.074219 0-150.847656-66.742188-152.507813-149.425782zm0 0" fill="#4c241d"/><path d="m354.382812 199.738281c0 82.777344-67.105468 149.882813-149.886718 149.882813-82.777344 0-149.882813-67.105469-149.882813-149.882813 0-82.78125 67.105469-149.886719 149.882813-149.886719 82.78125 0 149.886718 67.105469 149.886718 149.886719zm0 0" fill="#fff"/><path d="m204.496094 356.445312c-86.410156 0-156.707032-70.296874-156.707032-156.707031 0-86.410156 70.296876-156.710937 156.707032-156.710937s156.710937 70.300781 156.710937 156.710937c0 86.410157-70.300781 156.707031-156.710937 156.707031zm0-299.765624c-78.882813 0-143.054688 64.175781-143.054688 143.058593 0 78.878907 64.175782 143.054688 143.054688 143.054688 78.882812 0 143.058594-64.175781 143.058594-143.054688 0-78.882812-64.175782-143.058593-143.058594-143.058593zm0 0" fill="#4c241d"/><path d="m204.785156 56.957031v139.238281h-142.984375c-.03125 1.183594-.089843 2.351563-.089843 3.542969 0 78.859375 63.929687 142.785157 142.785156 142.785157 78.859375 0 142.789062-63.929688 142.789062-142.785157 0-78.765625-63.773437-142.625-142.5-142.78125zm0 0" fill="#b5a19c"/><g fill="#4c241d"><path d="m204.800781 86.792969c-3.769531 0-6.828125-3.058594-6.828125-6.828125v-27.304688c0-3.769531 3.058594-6.828125 6.828125-6.828125s6.824219 3.058594 6.824219 6.828125v27.304688c0 3.769531-3.054688 6.828125-6.824219 6.828125zm0 0"/><path d="m204.800781 353.03125c-3.769531 0-6.828125-3.054688-6.828125-6.824219v-27.308593c0-3.769532 3.058594-6.824219 6.828125-6.824219s6.824219 3.054687 6.824219 6.824219v27.308593c0 3.769531-3.054688 6.824219-6.824219 6.824219zm0 0"/><path d="m88.746094 202.847656h-34.132813c-3.769531 0-6.828125-3.058594-6.828125-6.828125s3.058594-6.828125 6.828125-6.828125h34.132813c3.769531 0 6.828125 3.058594 6.828125 6.828125s-3.058594 6.828125-6.828125 6.828125zm0 0"/><path d="m348.160156 202.847656h-27.308594c-3.769531 0-6.824218-3.058594-6.824218-6.828125s3.054687-6.828125 6.824218-6.828125h27.308594c3.769532 0 6.828125 3.058594 6.828125 6.828125s-3.058593 6.828125-6.828125 6.828125zm0 0"/><path d="m101.753906 314.089844c-1.710937 0-3.425781-.640625-4.746094-1.921875-2.710937-2.621094-2.78125-6.945313-.15625-9.652344l18.992188-19.617187c2.617188-2.714844 6.941406-2.785157 9.648438-.160157 2.710937 2.621094 2.78125 6.945313.15625 9.652344l-18.992188 19.617187c-1.335938 1.386719-3.121094 2.082032-4.902344 2.082032zm0 0"/><path d="m286.929688 122.796875c-1.710938 0-3.421876-.640625-4.746094-1.921875-2.710938-2.621094-2.78125-6.945312-.15625-9.652344l18.992187-19.617187c2.617188-2.714844 6.941407-2.78125 9.648438-.160157 2.710937 2.621094 2.78125 6.945313.160156 9.652344l-18.996094 19.617188c-1.335937 1.386718-3.117187 2.082031-4.902343 2.082031zm0 0"/><path d="m118.082031 130.367188c-1.710937 0-3.425781-.636719-4.75-1.921876l-24.523437-23.742187c-2.707032-2.621094-2.777344-6.945313-.152344-9.652344 2.609375-2.707031 6.9375-2.78125 9.652344-.15625l24.523437 23.746094c2.707031 2.617187 2.773438 6.941406.152344 9.652344-1.335937 1.378906-3.121094 2.074219-4.902344 2.074219zm0 0"/><path d="m304.472656 310.796875c-1.710937 0-3.425781-.640625-4.746094-1.925781l-19.621093-18.992188c-2.710938-2.621094-2.78125-6.941406-.15625-9.648437 2.613281-2.714844 6.941406-2.78125 9.648437-.15625l19.621094 18.992187c2.707031 2.621094 2.777344 6.941406.15625 9.648438-1.335938 1.386718-3.121094 2.082031-4.902344 2.082031zm0 0"/><path d="m235.519531 250.632812c-13.171875 0-23.894531-10.023437-23.894531-22.34375 0-3.769531 3.058594-6.828124 6.828125-6.828124s6.828125 3.058593 6.828125 6.828124c0 4.792969 4.589844 8.691407 10.238281 8.691407 5.648438 0 10.242188-3.898438 10.242188-8.691407v-6.8125c0-4.457031-4.296875-8.078124-9.570313-8.078124h-17.738281c-3.769531 0-6.828125-3.058594-6.828125-6.828126v-31.03125c0-3.769531 3.058594-6.828124 6.828125-6.828124h34.132813c3.769531 0 6.828124 3.058593 6.828124 6.828124 0 3.769532-3.058593 6.828126-6.828124 6.828126h-27.304688v17.375h10.910156c12.804688 0 23.222656 9.75 23.222656 21.734374v6.8125c0 12.320313-10.71875 22.34375-23.894531 22.34375zm0 0"/><path d="m191.148438 216.5h-40.960938c-2.367188 0-4.566406-1.226562-5.808594-3.238281-1.242187-2.011719-1.355468-4.523438-.296875-6.640625l27.304688-54.613282c1.683593-3.371093 5.773437-4.738281 9.160156-3.054687 3.375 1.6875 4.738281 5.785156 3.054687 9.160156l-22.367187 44.734375h29.914063c3.769531 0 6.824218 3.054688 6.824218 6.824219s-3.054687 6.828125-6.824218 6.828125zm0 0"/><path d="m184.320312 250.632812c-3.769531 0-6.828124-3.058593-6.828124-6.828124v-47.785157c0-3.769531 3.058593-6.828125 6.828124-6.828125 3.769532 0 6.828126 3.058594 6.828126 6.828125v47.785157c0 3.769531-3.058594 6.828124-6.828126 6.828124zm0 0"/></g></svg>