<svg width="625" height="621" xmlns="http://www.w3.org/2000/svg" xmlns:xlink="http://www.w3.org/1999/xlink" overflow="hidden"><defs><clipPath id="clip0"><path d="M269 16 894 16 894 637 269 637Z" fill-rule="evenodd" clip-rule="evenodd"/></clipPath><clipPath id="clip1"><path d="M273.95 188.914 721.119 16.4173 893.616 463.586 446.447 636.083Z" fill-rule="evenodd" clip-rule="evenodd"/></clipPath><clipPath id="clip2"><path d="M273.95 188.914 721.119 16.4173 893.616 463.586 446.447 636.083Z" fill-rule="evenodd" clip-rule="evenodd"/></clipPath><clipPath id="clip3"><path d="M273.95 188.914 721.119 16.4173 893.616 463.586 446.447 636.083Z" fill-rule="evenodd" clip-rule="evenodd"/></clipPath></defs><g clip-path="url(#clip0)" transform="translate(-269 -16)"><g clip-path="url(#clip1)"><g clip-path="url(#clip2)"><g clip-path="url(#clip3)"><path d="M695.812 276.688C709.435 274.835 723.05 269.509 735.231 257.757 756.172 237.559 764.702 206.71 754.787 179.353 743.687 148.709 714.396 130.222 683.717 131.167 671.171 104.298 639.824 91.3372 611.748 102.168 611.668 102.199 611.59 102.238 611.51 102.269 610.398 97.9 608.412 93.5908 605.281 89.5013 596.485 78.0107 581.265 72.4649 567.244 76.0432 555.749 78.9799 547.175 86.8076 542.8 96.5291 533.751 93.0585 523.466 92.6625 513.689 96.4341 492.742 104.514 482.313 128.044 490.393 148.99 490.418 149.054 490.459 149.113 490.484 149.177 465.768 160.93 453.887 189.9 463.898 215.852 465.428 219.819 467.424 223.459 469.734 226.811 439.916 239.765 425.32 273.989 437.128 304.6 441.129 314.973 447.683 323.575 455.767 330.08 449.409 341.324 447.946 355.219 452.957 368.207 459.963 386.369 477.535 397.294 495.952 396.772 522.471 471.749 565.819 505.299 639.761 544.492 641.085 545.192 642.42 545.898 643.76 546.592 644.048 546.74 644.336 546.887 644.624 547.035 675.133 562.713 716.099 525.888 694.083 499.585 576.495 359.037 755.553 316.838 755.553 316.838 755.553 316.838 741.531 266.013 696.782 280.64 696.366 279.396 695.948 278.143 695.532 276.898 695.635 276.83 695.708 276.756 695.812 276.688Z" fill="#88C057"/><path d="M644.632 547.032C644.344 546.884 644.056 546.736 643.768 546.589 642.428 545.895 641.096 545.197 639.769 544.489 565.819 505.299 522.471 471.749 495.96 396.769 477.543 397.291 459.971 386.366 452.965 368.204 447.951 355.208 449.417 341.321 455.775 330.077 447.7 323.569 441.138 314.969 437.136 304.597 425.328 273.986 439.921 239.754 469.742 226.808 467.432 223.456 465.436 219.816 463.906 215.849 455.953 195.232 461.85 172.749 476.982 158.462 474.285 155.019 471.254 151.667 467.749 148.499 450.257 132.681 428.052 127.074 413.127 135.809 400.825 143.004 395.775 157.257 397.38 173.185 383.513 170.02 370.186 171.852 360.653 179.994 340.215 197.446 345.874 234.331 371.567 260.603 371.644 260.684 371.732 260.742 371.809 260.823 350.896 282.961 358.126 322.003 387.053 348.581 391.274 352.453 395.732 355.79 400.309 358.693 376.508 381.325 382.746 419.761 412.564 443.952 422.092 451.685 432.858 456.924 443.705 459.83 443.394 470.96 448.811 482.414 459.381 490.835 473.573 502.149 492.973 504.631 507.965 498.728 554.396 540.416 594.573 548.038 651.686 549.932 652.285 549.95 652.884 549.969 653.479 549.979 650.475 549.382 647.505 548.512 644.632 547.032Z" fill="#659C35"/><path d="M571.408 299.911C571.478 298.701 571.279 297.539 570.885 296.47 571.055 279.728 573.3 264.866 576.606 251.915 609.796 230.495 641.368 231.268 642.071 231.293 643.305 231.353 644.48 231.14 645.542 230.73 648.641 229.535 650.899 226.593 651.065 223.071 651.281 218.31 647.591 214.28 642.838 214.061 641.533 214.009 615.674 213.094 584.649 227.734 593.97 205.455 604.812 192.796 606.458 190.977 615.99 180.866 635.868 181.518 642.737 182.622 644.309 182.885 645.845 182.699 647.237 182.162 649.99 181.1 652.131 178.647 652.647 175.527 653.422 170.827 650.259 166.39 645.548 165.609 644.42 165.416 622.298 161.941 604.576 171.19 603.643 164.052 604.869 156.757 605.745 153.683 607.081 149.118 604.459 144.334 599.886 143.001 595.33 141.661 590.522 144.274 589.193 148.854 588.937 149.702 583.781 167.776 590.022 183.885 581.08 195.572 559.215 228.976 554.901 280.819 554.665 283.61 554.537 286.562 554.42 289.519 526.678 282.979 519.992 254.885 519.693 253.512 518.689 248.871 514.117 245.91 509.461 246.902 504.813 247.891 501.832 252.48 502.824 257.135 506.124 272.641 521.081 301.446 554.428 307.154 555.233 327.071 558.803 349.841 566.973 375.19 567.113 376.033 567.373 376.802 567.735 377.549 573.606 395.262 581.852 414.24 592.801 434.284 580.43 432.603 572.594 426.187 572.082 425.747 568.476 422.654 563.057 423.034 559.941 426.603 556.812 430.186 557.169 435.641 560.763 438.775 561.503 439.423 578.005 453.516 602.925 451.807 621.008 481.403 645.137 513.159 677.333 546.823 682.706 544.335 687.511 540.808 691.346 536.611 691.297 536.556 691.278 536.48 691.225 536.417 657.567 501.431 632.788 468.733 614.617 438.404 614.51 438.223 614.423 438.044 614.311 437.874 600.721 415.106 590.908 393.718 584.126 373.787 587.982 350.233 620.798 336.687 621.133 336.548 625.547 334.762 627.689 329.748 625.911 325.331 624.146 320.946 619.205 318.803 614.812 320.498 614.78 320.51 614.747 320.522 614.715 320.535 613.41 321.057 590.66 330.406 576.859 348.838 572.934 332.048 571.183 316.509 570.925 302.205 571.186 301.467 571.363 300.705 571.408 299.911Z" fill="#659C35"/></g></g></g><path d="M274 326.5C274 171.584 404.061 46 564.5 46 724.939 46 855 171.584 855 326.5 855 481.416 724.939 607 564.5 607 404.061 607 274 481.416 274 326.5Z" stroke="#000000" stroke-width="8" stroke-miterlimit="8" fill="none" fill-rule="evenodd"/></g></svg>